<svg width="65" height="65" viewBox="0 0 65 65" fill="none" xmlns="http://www.w3.org/2000/svg">
<path d="M19.676 20.216H17.48V24.644C17.48 25.58 17.12 26.012 16.22 26.012H11.468V28.1H14.888C16.22 28.1 16.868 27.56 17.192 26.84H17.48V42.716H11V44.768H26.12V42.716H19.676V20.216Z" fill="#F1F1F1"/>
<path d="M33.3419 34.436C36.6539 34.436 38.3099 32.744 38.3099 30.404V30.224C38.3099 28.568 37.3739 27.488 35.7179 27.128V26.912C37.0859 26.408 37.8419 25.364 37.8419 23.996V23.78C37.8419 21.692 36.1859 20 33.3779 20C30.4259 20 28.6259 21.728 28.6259 24.536H30.5699C30.5699 22.484 31.5419 21.728 33.3779 21.728C35.1419 21.728 35.8979 22.7 35.8979 23.924V24.104C35.8979 25.544 35.1419 26.264 33.3779 26.264H31.9379V27.92H33.9899C35.6819 27.92 36.4019 28.604 36.4019 30.188V30.332C36.4019 31.736 35.5379 32.672 33.3419 32.672C31.2539 32.672 30.2099 31.952 30.2099 29.648H28.3019C28.3019 32.672 30.1379 34.436 33.3419 34.436Z" fill="#F1F1F1"/>
<path d="M51.2559 40.34V30.764H48.0519L42.8319 39.152V42.14H49.3119V44.768H51.2559V42.14H53.3079V40.34H51.2559ZM49.3119 32.564V40.34H44.7759V39.332L48.9879 32.564H49.3119Z" fill="#F1F1F1"/>
</svg>
