<svg width="64" height="64" viewBox="0 0 64 64" fill="none" xmlns="http://www.w3.org/2000/svg">
<path d="M17.324 17C11.348 17 8 20.528 8 26.864V36.332C8 42.668 11.348 46.196 17.216 46.196H17.36C21.176 46.196 23.84 44.756 25.388 42.02L23.768 41.012C22.544 43.208 20.6 44.36 17.36 44.36H17.216C12.176 44.36 9.944 41.408 9.944 36.332V26.864C9.944 21.788 12.176 18.836 17.324 18.836H17.54C22.688 18.836 24.92 21.788 24.92 26.864V32.012C24.92 34.928 24.128 36.188 22.148 36.188H21.464V25.568H19.844V27.332H19.484C19.196 26.108 18.332 25.352 16.856 25.352H16.748C14.876 25.352 13.22 26.684 13.22 30.284V33.452C13.22 37.052 14.696 38.24 16.784 38.24H16.892C18.188 38.24 19.268 37.376 19.592 36.044H19.916L20.024 38.024H22.076C25.604 38.024 26.9 35.612 26.9 32.012V26.864C26.9 20.528 23.516 17 17.54 17H17.324ZM19.556 33.56C19.556 35.288 18.836 36.476 17.36 36.476H17.288C15.956 36.476 15.128 36.008 15.128 33.704V29.924C15.128 28.088 15.956 27.116 17.324 27.116H17.396C18.836 27.116 19.556 28.484 19.556 30.068V33.56Z" fill="#F1F1F1"/>
<path d="M33.2219 34.316L33.7979 17.432H30.9179L31.4939 34.316H33.2219ZM34.3019 41.984V38.096H30.4139V41.984H34.3019Z" fill="#F1F1F1"/>
<path d="M56.3199 24.2H52.9359L54.2679 17.432H52.2519L50.9199 24.2H45.7719L47.1039 17.432H45.0879L43.7559 24.2H39.8319L39.4719 26.18H43.3959L42.0639 32.876H38.5719L38.2479 34.856H41.7039L40.2999 41.984H42.3159L43.7199 34.856H48.8679L47.4639 41.984H49.4439L50.8479 34.856H54.7359L55.0599 32.876H51.2439L52.5399 26.18H55.9959L56.3199 24.2ZM44.0799 32.876L45.4119 26.18H50.5599L49.2279 32.876H44.0799Z" fill="#F1F1F1"/>
</svg>
