<svg width="65" height="65" viewBox="0 0 65 65" fill="none" xmlns="http://www.w3.org/2000/svg">
<path d="M32.072 44.552L24.8 20H21.344L14 44.552H16.376L18.68 36.704H27.464L29.732 44.552H32.072ZM22.928 22.124H23.216L26.852 34.652H19.256L22.928 22.124Z" fill="#F1F1F1"/>
<path d="M48.1859 33.752C48.1859 29.396 46.4219 26.768 41.5619 26.768H41.4899C37.2059 26.768 34.6139 29.144 34.2899 33.14H36.5939C36.8819 30.26 38.4299 28.784 41.4179 28.784H41.5619C44.8739 28.784 46.0259 30.584 46.0259 33.572V34.652L40.1579 35.408C36.1619 35.876 33.6779 37.172 33.6779 40.232V40.448C33.6779 43.796 36.5219 44.912 38.7539 44.912H38.8979C42.4259 44.912 44.8019 42.824 45.6659 40.88H46.0619L46.2419 44.552H51.3539V42.536H48.1859V33.752ZM38.9699 42.896C37.0979 42.896 35.8739 41.96 35.8739 40.412V40.196C35.8739 38.324 37.2779 37.532 40.4819 37.136L46.0259 36.452V36.596C46.0259 41.096 42.1739 42.896 39.1139 42.896H38.9699Z" fill="#F1F1F1"/>
</svg>
